<svg width="350" height="271" viewBox="0 0 350 271" fill="none" xmlns="http://www.w3.org/2000/svg">
<g clip-path="url(#clip0)">
<path d="M201.507 145.895C209.621 141.107 217.74 136.319 225.866 131.531C226.217 131.376 226.512 131.112 226.708 130.777C226.904 130.442 226.991 130.052 226.958 129.663C226.923 114.102 226.923 98.5168 226.958 82.9077C226.958 82.5486 226.905 82.1895 226.861 81.6778L204.633 94.7762C194.94 100.474 185.25 106.193 175.563 111.932C175.249 112.156 174.876 112.276 174.493 112.276C174.11 112.276 173.737 112.156 173.423 111.932C159.579 103.745 145.727 95.5752 131.865 87.4235L122.011 81.6508V83.3207C122.011 98.5827 122.011 113.791 122.011 129.026C121.959 129.627 122.096 130.228 122.401 130.745C122.707 131.261 123.165 131.665 123.71 131.899C133.644 137.68 143.534 143.57 153.441 149.369C160.116 153.292 166.783 157.234 173.476 161.13C173.702 161.287 173.956 161.395 174.224 161.447C174.492 161.5 174.768 161.496 175.035 161.435L201.507 145.895ZM178.117 40.2998C175.528 38.6569 173.714 38.5043 170.993 40.228C161.305 46.2699 151.31 51.8989 141.447 57.6985L122.072 69.0911L122.777 69.54C139.691 79.4932 156.606 89.4584 173.52 99.4356C173.835 99.6517 174.209 99.761 174.588 99.7481C174.968 99.7353 175.333 99.6007 175.634 99.3637C191.52 90.003 207.419 80.6453 223.33 71.2906C224.483 70.6173 225.619 69.9081 226.905 69.127L178.117 40.2998Z" fill="#414042"/>
</g>
<path d="M65.8555 224.621H68.2988C69.834 224.598 71.041 224.193 71.9199 223.408C72.7988 222.623 73.2383 221.562 73.2383 220.227C73.2383 217.227 71.7441 215.727 68.7559 215.727C67.3496 215.727 66.2246 216.131 65.3809 216.939C64.5488 217.736 64.1328 218.797 64.1328 220.121H60.8809C60.8809 218.094 61.6191 216.412 63.0957 215.076C64.584 213.729 66.4707 213.055 68.7559 213.055C71.1699 213.055 73.0625 213.693 74.4336 214.971C75.8047 216.248 76.4902 218.023 76.4902 220.297C76.4902 221.41 76.127 222.488 75.4004 223.531C74.6855 224.574 73.707 225.354 72.4648 225.869C73.8711 226.314 74.9551 227.053 75.7168 228.084C76.4902 229.115 76.877 230.375 76.877 231.863C76.877 234.16 76.127 235.982 74.627 237.33C73.127 238.678 71.1758 239.352 68.7734 239.352C66.3711 239.352 64.4141 238.701 62.9023 237.4C61.4023 236.1 60.6523 234.383 60.6523 232.25H63.9219C63.9219 233.598 64.3613 234.676 65.2402 235.484C66.1191 236.293 67.2969 236.697 68.7734 236.697C70.3438 236.697 71.5449 236.287 72.377 235.467C73.209 234.646 73.625 233.469 73.625 231.934C73.625 230.445 73.168 229.303 72.2539 228.506C71.3398 227.709 70.0215 227.299 68.2988 227.275H65.8555V224.621ZM82.1855 239V213.406H89.4102C91.6367 213.406 93.6055 213.898 95.3164 214.883C97.0273 215.867 98.3457 217.268 99.2715 219.084C100.209 220.9 100.684 222.986 100.695 225.342V226.977C100.695 229.391 100.227 231.506 99.2891 233.322C98.3633 235.139 97.0332 236.533 95.2988 237.506C93.5762 238.479 91.5664 238.977 89.2695 239H82.1855ZM85.5605 216.184V236.24H89.1113C91.7129 236.24 93.7344 235.432 95.1758 233.814C96.6289 232.197 97.3555 229.895 97.3555 226.906V225.412C97.3555 222.506 96.6699 220.25 95.2988 218.645C93.9395 217.027 92.0059 216.207 89.498 216.184H85.5605ZM119.1 213.406L127.467 234.289L135.834 213.406H140.211V239H136.836V229.033L137.152 218.275L128.75 239H126.166L117.781 218.328L118.115 229.033V239H114.74V213.406H119.1ZM165.857 227.029C165.857 229.537 165.436 231.729 164.592 233.604C163.748 235.467 162.553 236.891 161.006 237.875C159.459 238.859 157.654 239.352 155.592 239.352C153.576 239.352 151.789 238.859 150.23 237.875C148.672 236.879 147.459 235.467 146.592 233.639C145.736 231.799 145.297 229.672 145.273 227.258V225.412C145.273 222.951 145.701 220.777 146.557 218.891C147.412 217.004 148.619 215.562 150.178 214.566C151.748 213.559 153.541 213.055 155.557 213.055C157.607 213.055 159.412 213.553 160.971 214.549C162.541 215.533 163.748 216.969 164.592 218.855C165.436 220.73 165.857 222.916 165.857 225.412V227.029ZM162.5 225.377C162.5 222.342 161.891 220.016 160.672 218.398C159.453 216.77 157.748 215.955 155.557 215.955C153.424 215.955 151.742 216.77 150.512 218.398C149.293 220.016 148.666 222.266 148.631 225.148V227.029C148.631 229.971 149.246 232.285 150.477 233.973C151.719 235.648 153.424 236.486 155.592 236.486C157.771 236.486 159.459 235.695 160.654 234.113C161.85 232.52 162.465 230.24 162.5 227.275V225.377ZM170.92 239V213.406H178.145C180.371 213.406 182.34 213.898 184.051 214.883C185.762 215.867 187.08 217.268 188.006 219.084C188.943 220.9 189.418 222.986 189.43 225.342V226.977C189.43 229.391 188.961 231.506 188.023 233.322C187.098 235.139 185.768 236.533 184.033 237.506C182.311 238.479 180.301 238.977 178.004 239H170.92ZM174.295 216.184V236.24H177.846C180.447 236.24 182.469 235.432 183.91 233.814C185.363 232.197 186.09 229.895 186.09 226.906V225.412C186.09 222.506 185.404 220.25 184.033 218.645C182.674 217.027 180.74 216.207 178.232 216.184H174.295ZM209.012 227.17H197.92V236.24H210.805V239H194.545V213.406H210.629V216.184H197.92V224.41H209.012V227.17ZM218.398 236.24H230.527V239H215.006V213.406H218.398V236.24ZM237.998 239H234.623V213.406H237.998V239ZM263.855 239H260.463L247.578 219.277V239H244.186V213.406H247.578L260.498 233.217V213.406H263.855V239ZM288.746 235.643C287.879 236.885 286.666 237.816 285.107 238.438C283.561 239.047 281.756 239.352 279.693 239.352C277.607 239.352 275.756 238.865 274.139 237.893C272.521 236.908 271.268 235.514 270.377 233.709C269.498 231.904 269.047 229.812 269.023 227.434V225.201C269.023 221.346 269.92 218.357 271.713 216.236C273.518 214.115 276.049 213.055 279.307 213.055C281.979 213.055 284.129 213.74 285.758 215.111C287.387 216.471 288.383 218.404 288.746 220.912H285.371C284.738 217.525 282.723 215.832 279.324 215.832C277.062 215.832 275.346 216.629 274.174 218.223C273.014 219.805 272.428 222.102 272.416 225.113V227.205C272.416 230.076 273.072 232.361 274.385 234.061C275.697 235.748 277.473 236.592 279.711 236.592C280.977 236.592 282.084 236.451 283.033 236.17C283.982 235.889 284.768 235.414 285.389 234.746V228.998H279.465V226.256H288.746V235.643Z" fill="black"/>
<defs>
<clipPath id="clip0">
<rect width="105" height="122.5" fill="white" transform="translate(122 39)"/>
</clipPath>
</defs>
</svg>
