<svg width="350" height="271" viewBox="0 0 350 271" fill="none" xmlns="http://www.w3.org/2000/svg">
<g clip-path="url(#clip0)">
<path d="M221.494 131.283V119.633C221.494 109.779 221.494 99.9341 221.494 90.0798C221.52 89.3235 221.789 88.5959 222.262 88.0052C224.893 84.8733 226.03 81.8013 228.721 78.7193C228.98 78.4101 229.27 78.1308 229.718 77.7219V139.731H119V59.6489H211.705C211.307 60.018 211.008 60.3172 210.709 60.5965C207.598 63.3194 204.498 64.4764 201.328 67.1394C200.73 67.6267 199.986 67.9004 199.215 67.9174C176.627 67.9174 152.464 67.9174 129.885 67.9174H127.443V131.243L221.494 131.283Z" fill="#414042"/>
<path d="M141.528 163V154.502H207.19V163H141.528Z" fill="#414042"/>
<path d="M242.418 41.1769C243.694 40.0997 244.94 39.601 246.196 40.379C248.518 41.8253 248.628 46.3635 246.345 48.9966C244.621 50.9914 242.816 52.8765 241.042 54.8015L208.904 89.7107L208.187 90.4488C205.395 86.0901 202.275 82.5892 200.062 78.6295L242.418 41.1769Z" fill="#414042"/>
<path d="M187.642 103.574C187.203 103.395 186.765 103.255 186.346 103.046C184.96 102.328 184.901 100.283 186.216 99.0563C186.795 98.4977 187.393 98.0588 187.971 97.4504C189.128 96.2834 189.776 94.7057 189.775 93.0618C189.708 90.7446 190.083 88.4359 190.882 86.2595C192.217 83.1776 194.141 81.2127 196.863 80.8536C197.358 80.7701 197.866 80.8658 198.298 81.1235C198.729 81.3812 199.054 81.7841 199.215 82.2599C200.541 85.1424 201.956 87.9452 203.332 90.7878C203.95 92.0744 203.84 92.7826 203.093 94.2188C202.099 96.2105 200.714 97.981 199.02 99.4241C197.325 100.867 195.358 101.953 193.234 102.617C191.952 103.026 190.647 103.359 189.327 103.614C188.765 103.663 188.2 103.65 187.642 103.574Z" fill="#414042"/>
<path d="M158.205 145.346C158.614 144.937 160.199 145.127 161.714 145.156C170.925 145.156 180.146 145.156 189.356 145.156C189.793 145.107 190.233 145.214 190.598 145.458C190.964 145.703 191.23 146.07 191.35 146.493C192.237 148.328 193.154 148.987 193.762 150.163H155.016C155.979 148.494 157.045 146.885 158.205 145.346V145.346Z" fill="#414042"/>
</g>
<path d="M48.7969 231.879C48.4805 234.586 47.4785 236.678 45.791 238.154C44.1152 239.619 41.8828 240.352 39.0938 240.352C36.0703 240.352 33.6445 239.268 31.8164 237.1C30 234.932 29.0918 232.031 29.0918 228.398V225.938C29.0918 223.559 29.5137 221.467 30.3574 219.662C31.2129 217.857 32.4199 216.475 33.9785 215.514C35.5371 214.541 37.3418 214.055 39.3926 214.055C42.1113 214.055 44.291 214.816 45.9316 216.34C47.5723 217.852 48.5273 219.949 48.7969 222.633H45.4043C45.1113 220.594 44.4727 219.117 43.4883 218.203C42.5156 217.289 41.1504 216.832 39.3926 216.832C37.2363 216.832 35.543 217.629 34.3125 219.223C33.0938 220.816 32.4844 223.084 32.4844 226.025V228.504C32.4844 231.281 33.0645 233.49 34.2246 235.131C35.3848 236.771 37.0078 237.592 39.0938 237.592C40.9688 237.592 42.4043 237.17 43.4004 236.326C44.4082 235.471 45.0762 233.988 45.4043 231.879H48.7969ZM62.8066 229.646H56.7949V240H53.4023V214.406H61.875C64.7578 214.406 66.9727 215.062 68.5195 216.375C70.0781 217.688 70.8574 219.598 70.8574 222.105C70.8574 223.699 70.4238 225.088 69.5566 226.271C68.7012 227.455 67.5059 228.34 65.9707 228.926L71.9824 239.789V240H68.3613L62.8066 229.646ZM56.7949 226.887H61.9805C63.6562 226.887 64.9863 226.453 65.9707 225.586C66.9668 224.719 67.4648 223.559 67.4648 222.105C67.4648 220.523 66.9902 219.311 66.041 218.467C65.1035 217.623 63.7441 217.195 61.9629 217.184H56.7949V226.887ZM90.0703 228.17H78.9785V237.24H91.8633V240H75.6035V214.406H91.6875V217.184H78.9785V225.41H90.0703V228.17ZM110.197 233.32H99.4746L97.0664 240H93.5859L103.359 214.406H106.312L116.104 240H112.641L110.197 233.32ZM100.494 230.543H109.195L104.836 218.572L100.494 230.543ZM134.947 217.184H126.721V240H123.363V217.184H115.154V214.406H134.947V217.184ZM142.365 240H138.99V214.406H142.365V240ZM157.025 235.518L164.338 214.406H168.029L158.537 240H155.549L146.074 214.406H149.748L157.025 235.518ZM185.941 228.17H174.85V237.24H187.734V240H171.475V214.406H187.559V217.184H174.85V225.41H185.941V228.17ZM200.865 240V214.406H208.09C210.316 214.406 212.285 214.898 213.996 215.883C215.707 216.867 217.025 218.268 217.951 220.084C218.889 221.9 219.363 223.986 219.375 226.342V227.977C219.375 230.391 218.906 232.506 217.969 234.322C217.043 236.139 215.713 237.533 213.979 238.506C212.256 239.479 210.246 239.977 207.949 240H200.865ZM204.24 217.184V237.24H207.791C210.393 237.24 212.414 236.432 213.855 234.814C215.309 233.197 216.035 230.895 216.035 227.906V226.412C216.035 223.506 215.35 221.25 213.979 219.645C212.619 218.027 210.686 217.207 208.178 217.184H204.24ZM238.957 228.17H227.865V237.24H240.75V240H224.49V214.406H240.574V217.184H227.865V225.41H238.957V228.17ZM252.492 228.592C249.598 227.76 247.488 226.74 246.164 225.533C244.852 224.314 244.195 222.814 244.195 221.033C244.195 219.018 244.998 217.354 246.604 216.041C248.221 214.717 250.318 214.055 252.896 214.055C254.654 214.055 256.219 214.395 257.59 215.074C258.973 215.754 260.039 216.691 260.789 217.887C261.551 219.082 261.932 220.389 261.932 221.807H258.539C258.539 220.26 258.047 219.047 257.062 218.168C256.078 217.277 254.689 216.832 252.896 216.832C251.232 216.832 249.932 217.201 248.994 217.939C248.068 218.666 247.605 219.68 247.605 220.98C247.605 222.023 248.045 222.908 248.924 223.635C249.814 224.35 251.32 225.006 253.441 225.604C255.574 226.201 257.238 226.863 258.434 227.59C259.641 228.305 260.531 229.143 261.105 230.104C261.691 231.064 261.984 232.195 261.984 233.496C261.984 235.57 261.176 237.234 259.559 238.488C257.941 239.73 255.779 240.352 253.072 240.352C251.314 240.352 249.674 240.018 248.15 239.35C246.627 238.67 245.449 237.744 244.617 236.572C243.797 235.4 243.387 234.07 243.387 232.582H246.779C246.779 234.129 247.348 235.354 248.484 236.256C249.633 237.146 251.162 237.592 253.072 237.592C254.854 237.592 256.219 237.229 257.168 236.502C258.117 235.775 258.592 234.785 258.592 233.531C258.592 232.277 258.152 231.311 257.273 230.631C256.395 229.939 254.801 229.26 252.492 228.592ZM269.947 240H266.572V214.406H269.947V240ZM295.031 236.643C294.164 237.885 292.951 238.816 291.393 239.438C289.846 240.047 288.041 240.352 285.979 240.352C283.893 240.352 282.041 239.865 280.424 238.893C278.807 237.908 277.553 236.514 276.662 234.709C275.783 232.904 275.332 230.812 275.309 228.434V226.201C275.309 222.346 276.205 219.357 277.998 217.236C279.803 215.115 282.334 214.055 285.592 214.055C288.264 214.055 290.414 214.74 292.043 216.111C293.672 217.471 294.668 219.404 295.031 221.912H291.656C291.023 218.525 289.008 216.832 285.609 216.832C283.348 216.832 281.631 217.629 280.459 219.223C279.299 220.805 278.713 223.102 278.701 226.113V228.205C278.701 231.076 279.357 233.361 280.67 235.061C281.982 236.748 283.758 237.592 285.996 237.592C287.262 237.592 288.369 237.451 289.318 237.17C290.268 236.889 291.053 236.414 291.674 235.746V229.998H285.75V227.256H295.031V236.643ZM320.344 240H316.951L304.066 220.277V240H300.674V214.406H304.066L316.986 234.217V214.406H320.344V240Z" fill="black"/>
<defs>
<clipPath id="clip0">
<rect width="129" height="123" fill="white" transform="translate(119 40)"/>
</clipPath>
</defs>
</svg>
