<svg width="350" height="271" viewBox="0 0 350 271" fill="none" xmlns="http://www.w3.org/2000/svg">
<g clip-path="url(#clip0)">
<path d="M172.82 98.0323C172.921 97.8575 172.979 97.663 172.989 97.4636C172.999 97.2643 172.961 97.0654 172.879 96.8821C172.796 96.6987 172.67 96.5358 172.511 96.4057C172.351 96.2756 172.163 96.1817 171.96 96.1312C171.218 95.8178 170.594 95.2971 170.17 94.6383C169.747 93.9795 169.544 93.2138 169.59 92.443C169.641 92.1252 169.621 91.8008 169.534 91.4904C169.446 91.18 169.291 90.8902 169.08 90.6393C168.869 90.3884 168.605 90.1818 168.306 90.0325C168.006 89.8833 167.677 89.7945 167.34 89.7719C166.01 89.4136 164.735 88.8894 163.55 88.2129C163.277 88.0164 162.936 87.9266 162.595 87.962C162.255 87.9973 161.942 88.1552 161.72 88.403C161.335 88.7875 160.886 89.1087 160.39 89.3536C159.607 89.7617 158.754 90.0322 157.87 90.1521C155.15 90.2567 153.68 88.4316 152.43 86.5304C151.32 84.8289 151.88 83.2224 153.18 81.7776C153.379 81.5105 153.593 81.2535 153.82 81.0076C154.104 80.7767 154.285 80.4516 154.326 80.0984C154.367 79.7453 154.264 79.3906 154.04 79.1065C153.288 77.6735 152.64 76.1935 152.1 74.6768C151.85 74.0209 151.6 73.6312 150.79 73.6122C146.79 73.4981 144.98 72.2719 145.17 67.5475C145.27 65.1426 146.46 63.5741 149.17 63.327C151.35 63.1369 152.33 62.3004 152.7 60.3422C152.951 59.382 153.385 58.4735 153.98 57.6616C154.228 57.3543 154.346 56.9694 154.309 56.5835C154.271 56.1977 154.083 55.8393 153.78 55.5798C153.247 54.9946 152.781 54.3574 152.39 53.6787C151.953 53.0055 151.766 52.212 151.86 51.4258C151.955 50.6396 152.324 49.9064 152.91 49.3441C153.22 49.0019 153.56 48.6882 153.91 48.3935C156.59 45.8365 158.34 45.7129 161.31 48.0323C161.641 48.3902 162.1 48.6171 162.599 48.6681C163.097 48.7192 163.597 48.5907 164 48.308C165.419 47.6093 166.906 47.0427 168.44 46.616C168.731 46.5656 168.993 46.4163 169.177 46.196C169.361 45.9756 169.455 45.6992 169.44 45.4183C169.44 45.1331 169.5 44.8479 169.53 44.5627C169.83 41.3023 171.31 40.0095 174.71 40C178.64 40 180.12 41.1977 180.45 44.9335C180.436 45.3755 180.595 45.8067 180.896 46.1438C181.197 46.4809 181.619 46.7 182.08 46.7586C183.496 47.1252 184.859 47.6552 186.14 48.3365C186.495 48.5988 186.944 48.7171 187.39 48.6654C187.836 48.6138 188.242 48.3964 188.52 48.0608C189.007 47.5329 189.611 47.1142 190.289 46.8348C190.967 46.5554 191.702 46.4222 192.44 46.4449C195.06 46.654 196.44 48.346 197.6 50.3042C198.6 52.0152 198.04 53.6027 196.72 54.9144C196.453 55.1087 196.231 55.3528 196.067 55.6319C195.903 55.911 195.801 56.2191 195.767 56.5371C195.733 56.8551 195.769 57.1764 195.871 57.481C195.973 57.7855 196.139 58.067 196.36 58.308C197.032 59.4554 197.54 60.683 197.87 61.9582C198.1 62.6331 198.39 63.0608 199.19 63.0228H199.45C204.56 63.384 205.54 65.7605 204.45 70.7414C204.299 71.4885 203.871 72.1589 203.243 72.6302C202.615 73.1015 201.829 73.3421 201.03 73.308C198.82 73.308 197.72 74.1635 197.31 76.2262C196.997 77.2942 196.508 78.3082 195.86 79.23C195.759 79.3484 195.683 79.4848 195.638 79.6313C195.593 79.7778 195.58 79.9314 195.599 80.083C195.617 80.2345 195.668 80.381 195.747 80.5137C195.826 80.6464 195.933 80.7626 196.06 80.8555L196.15 80.9411C199.54 84.5342 198.4 87.2148 194.04 89.7719C193.291 90.2164 192.4 90.3917 191.527 90.2662C190.654 90.1407 189.857 89.7226 189.28 89.0875C189.056 88.81 188.775 88.5784 188.454 88.4064C188.133 88.2345 187.779 88.1258 187.414 88.0867C187.048 88.0477 186.677 88.0791 186.324 88.1792C185.972 88.2793 185.644 88.4459 185.36 88.6692C184.194 89.2915 182.942 89.7555 181.64 90.0475C181.323 90.0897 181.034 90.2425 180.829 90.4762C180.623 90.7099 180.517 91.0077 180.53 91.3118C180.483 91.9688 180.397 92.6226 180.27 93.27C180.178 93.8883 179.923 94.4743 179.527 94.9731C179.132 95.4719 178.61 95.8671 178.01 96.1217C177.13 96.4924 176.82 96.9582 177.15 98.0228C178.78 97.9087 180.48 97.8042 182.15 97.6521C187.788 97.0801 193.342 95.9165 198.71 94.1825C204.56 92.3954 210.37 92.2814 216.04 94.7243C223.04 97.7947 227.25 103.004 228.89 110.143C230.65 117.747 232.433 125.352 234.24 132.956C235.33 137.481 236.56 141.968 237.64 146.492C238.281 149.158 238.022 151.949 236.898 154.466C235.774 156.984 233.843 159.1 231.38 160.513C228.998 161.929 226.208 162.599 223.404 162.428C220.6 162.258 217.923 161.255 215.75 159.563C213.575 157.67 211.782 155.415 210.46 152.909C206.907 146.506 202.511 140.558 197.38 135.209C191.83 129.648 194.23 130.922 186.73 129.62C177.596 128.056 168.232 128.163 159.14 129.933C158.353 130.094 157.623 130.444 157.02 130.951C150.23 136.768 145.02 143.764 140.47 151.217C139.47 152.928 138.47 154.658 137.31 156.312C135.686 158.745 133.26 160.599 130.411 161.585C127.562 162.57 124.45 162.631 121.56 161.759C118.68 160.925 116.176 159.197 114.451 156.852C112.725 154.507 111.876 151.679 112.04 148.821C112.439 145.975 113.057 143.16 113.89 140.399C115.94 132.205 118.06 124.03 120.09 115.837C120.6 113.764 120.77 111.616 121.25 109.525C121.954 106.476 123.358 103.613 125.363 101.141C127.368 98.6684 129.924 96.6486 132.847 95.2258C135.769 93.803 138.987 93.0125 142.269 92.911C145.551 92.8096 148.816 93.3996 151.83 94.6388C154.836 95.8879 158.015 96.7202 161.27 97.1103C164.77 97.5475 168.27 97.7662 171.84 98.0608C172.17 98.0608 172.51 98.0323 172.82 98.0323ZM206.63 96.7015C202.929 96.7436 199.328 97.8462 196.297 99.8651C193.266 101.884 190.946 104.725 189.641 108.018C188.336 111.31 188.106 114.9 188.982 118.318C189.858 121.736 191.799 124.824 194.55 127.177C198.979 130.799 202.895 134.953 206.2 139.534C209.56 144.287 212.64 149.164 215.81 154.011C216.981 155.96 218.864 157.434 221.101 158.152C223.339 158.87 225.775 158.784 227.95 157.909C230.138 157.102 231.936 155.555 232.999 153.566C234.061 151.577 234.315 149.285 233.71 147.129C232.71 143.089 231.65 139.068 230.71 135.029C228.84 127.262 226.71 119.544 225.23 111.711C223.47 102.937 216 96.6255 206.63 96.7015V96.7015ZM161.55 114.667C161.55 114.259 161.55 113.85 161.55 113.432C161.36 109.06 159.457 104.914 156.213 101.809C152.97 98.7042 148.622 96.8655 144.024 96.6545C139.427 96.4436 134.912 97.8757 131.369 100.669C127.827 103.462 125.512 107.415 124.88 111.749C124.55 113.859 124.22 115.979 123.7 118.051C121.27 127.776 118.71 137.414 116.31 147.158C115.735 149.289 115.987 151.545 117.019 153.514C118.051 155.483 119.794 157.033 121.93 157.88C124.084 158.739 126.49 158.836 128.712 158.152C130.934 157.468 132.824 156.05 134.04 154.154C135.04 152.595 136.04 150.989 137.04 149.401C141.418 142.076 146.799 135.335 153.04 129.354C154.8 127.671 156.51 125.922 158.14 124.116C160.546 121.519 161.772 118.122 161.55 114.667V114.667ZM192.23 86.4734C194.23 84.8954 194.23 84.8954 192.76 83.1179L192.6 82.9183C191.937 82.2019 191.541 81.2981 191.472 80.3463C191.403 79.3945 191.666 78.4477 192.22 77.6521C192.875 76.6777 193.377 75.6177 193.71 74.5057C194.52 71.4164 196.29 69.5627 199.84 69.6578C200.003 69.6575 200.165 69.6224 200.312 69.5549C200.459 69.4874 200.588 69.3894 200.69 69.2681C200.837 69.0344 200.916 68.768 200.919 68.4959C200.922 68.2238 200.849 67.9558 200.708 67.7192C200.567 67.4825 200.362 67.2857 200.115 67.1487C199.867 67.0117 199.586 66.9394 199.3 66.9392C196.43 66.9392 194.75 65.5703 193.99 62.9563C193.611 61.6473 193.06 60.389 192.35 59.211C191.733 58.3324 191.45 57.2804 191.546 56.2281C191.642 55.1759 192.113 54.1862 192.88 53.4221C194.37 51.692 194.48 52.2148 192.64 50.4658C192.506 50.3642 192.358 50.281 192.2 50.2186C191.732 50.536 191.282 50.8755 190.85 51.2357C189.02 52.9373 187.06 53.0323 184.85 51.9487C183.231 51.207 181.56 50.5718 179.85 50.0475C179.147 49.8525 178.509 49.4871 177.999 48.9872C177.489 48.4873 177.124 47.87 176.94 47.1958C176.738 46.4816 176.621 45.7484 176.59 45.0095C176.54 44.154 176.22 43.7833 175.24 43.8308C174.26 43.8783 173.58 43.8783 173.6 45.0095C173.592 45.5029 173.548 45.9951 173.47 46.4829C173.424 47.2055 173.169 47.9019 172.733 48.4956C172.297 49.0893 171.698 49.5572 171 49.8479C168.73 50.7414 166.43 51.5875 164.15 52.443C163.46 52.7547 162.689 52.8659 161.933 52.7628C161.177 52.6596 160.47 52.3467 159.9 51.8631C159.19 51.3213 158.47 50.7985 157.78 50.2852C155.71 51.711 155.71 51.73 157.17 53.4981C157.917 54.2562 158.373 55.2319 158.464 56.2671C158.555 57.3023 158.275 58.3363 157.67 59.2015C156.979 60.3863 156.426 61.6389 156.02 62.9373C155.02 65.789 154.02 66.673 150.74 66.9297C149.87 66.9962 149.14 66.9297 149.2 68.1844C149.26 69.1825 149.34 69.7814 150.65 69.7719C153.16 69.7719 155.04 70.7224 155.81 73.2034C156.228 74.6712 156.84 76.0829 157.63 77.4049C158.274 78.2922 158.575 79.364 158.482 80.4383C158.389 81.5126 157.908 82.5232 157.12 83.2985C155.79 84.8669 155.81 84.8764 157.39 86.2548C157.518 86.3418 157.652 86.4212 157.79 86.4924L159.5 85.2186C161.5 83.7262 163.01 83.6407 165.23 84.7433C166.384 85.3886 167.621 85.8902 168.91 86.2357C171.91 86.9011 173.47 88.5646 173.5 91.5114C173.5 92.3764 173.73 92.8897 174.91 92.9087C176.09 92.9278 176.5 92.4525 176.51 91.4259C176.51 88.5741 177.99 86.9677 180.91 86.2833C182.355 85.8682 183.745 85.2939 185.05 84.5722C185.819 84.1411 186.706 83.9387 187.598 83.9912C188.489 84.0437 189.343 84.3487 190.05 84.8669C190.78 85.3612 191.48 85.9125 192.23 86.4734ZM189.53 100.466C180.058 102.209 170.338 102.364 160.81 100.922C166.7 108.964 167.09 117.082 162.24 125.57C170.802 124.451 179.495 124.598 188.01 126.008C182.77 117.129 183.21 108.745 189.53 100.466Z" fill="#414042"/>
<path d="M209.82 122.471C209.85 122.88 209.75 123.288 209.533 123.642C209.317 123.996 208.993 124.28 208.604 124.457C208.216 124.634 207.78 124.696 207.354 124.635C206.928 124.573 206.531 124.392 206.215 124.114C205.898 123.835 205.677 123.473 205.58 123.074C205.483 122.675 205.515 122.257 205.671 121.875C205.827 121.493 206.1 121.164 206.454 120.932C206.809 120.699 207.229 120.573 207.66 120.57C207.936 120.549 208.213 120.583 208.475 120.669C208.736 120.755 208.976 120.892 209.179 121.07C209.382 121.249 209.544 121.466 209.654 121.707C209.764 121.948 209.821 122.208 209.82 122.471Z" fill="#414042"/>
<path d="M207.71 108.555C207.322 108.528 206.951 108.393 206.643 108.168C206.334 107.943 206.101 107.637 205.973 107.288C205.844 106.939 205.825 106.562 205.918 106.203C206.012 105.845 206.213 105.519 206.498 105.267C206.783 105.016 207.138 104.848 207.522 104.786C207.905 104.723 208.299 104.768 208.656 104.915C209.013 105.063 209.317 105.305 209.531 105.614C209.744 105.923 209.859 106.284 209.86 106.654C209.861 106.916 209.804 107.176 209.695 107.416C209.585 107.657 209.424 107.873 209.222 108.051C209.02 108.23 208.782 108.367 208.521 108.454C208.261 108.54 207.985 108.575 207.71 108.555V108.555Z" fill="#414042"/>
<path d="M201.51 114.515C201.542 114.924 201.444 115.332 201.229 115.688C201.015 116.043 200.693 116.33 200.306 116.51C199.919 116.691 199.484 116.757 199.057 116.7C198.63 116.643 198.23 116.466 197.91 116.192C197.59 115.917 197.363 115.558 197.259 115.16C197.156 114.763 197.179 114.344 197.328 113.96C197.476 113.575 197.742 113.241 198.092 113.001C198.442 112.761 198.859 112.627 199.29 112.614C199.57 112.585 199.854 112.612 200.123 112.694C200.392 112.776 200.639 112.912 200.849 113.091C201.058 113.271 201.226 113.49 201.34 113.736C201.454 113.981 201.512 114.247 201.51 114.515Z" fill="#414042"/>
<path d="M218.15 114.515C218.121 115.035 217.885 115.526 217.49 115.887C217.095 116.248 216.571 116.453 216.023 116.46C215.475 116.467 214.945 116.276 214.539 115.926C214.134 115.575 213.884 115.092 213.84 114.572C213.84 114.319 213.893 114.067 213.997 113.834C214.1 113.6 214.252 113.388 214.443 113.211C214.634 113.034 214.861 112.895 215.109 112.802C215.358 112.709 215.623 112.665 215.89 112.671C216.167 112.647 216.446 112.675 216.711 112.755C216.976 112.835 217.221 112.965 217.432 113.137C217.643 113.309 217.815 113.52 217.938 113.757C218.062 113.994 218.134 114.252 218.15 114.515V114.515Z" fill="#414042"/>
<path d="M134.12 119.696C132.31 119.696 131.12 118.08 132.05 116.939C133.42 115.238 133.7 113.859 132.05 112.186C131.905 111.991 131.805 111.768 131.756 111.533C131.708 111.298 131.712 111.056 131.769 110.823C131.825 110.59 131.933 110.371 132.085 110.18C132.237 109.989 132.429 109.83 132.65 109.715C132.841 109.575 133.059 109.473 133.292 109.414C133.524 109.354 133.767 109.339 134.006 109.369C134.244 109.399 134.475 109.474 134.683 109.589C134.891 109.703 135.074 109.856 135.22 110.038C136.183 111.149 137.039 112.338 137.78 113.593C137.919 113.881 137.99 114.194 137.99 114.51C137.99 114.827 137.919 115.14 137.78 115.428C137.078 116.653 136.268 117.82 135.36 118.916C135.005 119.252 134.584 119.517 134.12 119.696V119.696Z" fill="#414042"/>
<path d="M151.64 119.981C151.027 119.623 150.46 119.199 149.95 118.717C149.16 117.766 148.49 116.682 147.78 115.646C147.506 115.298 147.358 114.874 147.358 114.439C147.358 114.004 147.506 113.58 147.78 113.232C148.5 112.281 149.18 111.255 149.93 110.304C150.071 110.085 150.258 109.895 150.479 109.746C150.7 109.597 150.95 109.492 151.214 109.438C151.479 109.384 151.752 109.381 152.018 109.431C152.284 109.48 152.536 109.58 152.76 109.724C152.995 109.857 153.196 110.038 153.349 110.254C153.502 110.469 153.603 110.714 153.645 110.971C153.687 111.228 153.669 111.49 153.592 111.74C153.515 111.989 153.381 112.22 153.2 112.414C151.8 113.907 151.86 115.143 153.2 116.644C153.376 116.972 153.476 117.331 153.494 117.699C153.511 118.066 153.445 118.433 153.3 118.774C153.13 119.258 152.31 119.525 151.64 119.981Z" fill="#414042"/>
<path d="M142.71 105.893C143.49 105.409 144.23 104.943 145.01 104.477C145.231 104.327 145.483 104.222 145.748 104.167C146.014 104.113 146.289 104.111 146.555 104.16C146.822 104.21 147.075 104.311 147.3 104.457C147.524 104.603 147.715 104.791 147.86 105.009C148.14 105.43 148.236 105.939 148.125 106.426C148.015 106.913 147.708 107.34 147.27 107.614C146.186 108.428 145.024 109.144 143.8 109.753C143.441 109.896 143.055 109.97 142.665 109.97C142.275 109.97 141.889 109.896 141.53 109.753C140.393 109.166 139.316 108.482 138.31 107.709C138.096 107.563 137.914 107.378 137.775 107.166C137.636 106.953 137.543 106.716 137.5 106.469C137.457 106.222 137.466 105.969 137.526 105.725C137.586 105.481 137.696 105.251 137.85 105.047C138.004 104.844 138.198 104.671 138.422 104.539C138.646 104.407 138.895 104.318 139.155 104.278C139.415 104.237 139.681 104.245 139.937 104.303C140.194 104.36 140.436 104.464 140.65 104.61C141.31 104.99 141.97 105.437 142.71 105.893Z" fill="#414042"/>
<path d="M142.71 123.156C141.94 123.66 141.28 124.106 140.58 124.534C140.365 124.678 140.123 124.781 139.866 124.836C139.61 124.891 139.345 124.898 139.086 124.855C138.827 124.813 138.579 124.723 138.356 124.589C138.134 124.456 137.942 124.282 137.79 124.078C137.638 123.874 137.53 123.643 137.472 123.4C137.415 123.156 137.408 122.904 137.452 122.657C137.497 122.411 137.592 122.176 137.732 121.964C137.873 121.753 138.055 121.57 138.27 121.426C139.265 120.645 140.333 119.951 141.46 119.354C142.182 119.076 142.988 119.076 143.71 119.354C144.94 119.955 146.105 120.668 147.19 121.483C147.42 121.62 147.618 121.799 147.773 122.011C147.927 122.223 148.035 122.462 148.089 122.714C148.143 122.967 148.143 123.227 148.088 123.48C148.033 123.732 147.925 123.971 147.77 124.183C147.615 124.395 147.416 124.575 147.186 124.712C146.956 124.848 146.698 124.939 146.43 124.978C146.161 125.017 145.887 125.004 145.624 124.939C145.361 124.874 145.115 124.759 144.9 124.601C144.17 124.106 143.46 123.669 142.71 123.156Z" fill="#414042"/>
<path d="M175.16 55.2566C177.898 55.2844 180.565 56.087 182.822 57.5621C185.078 59.0371 186.82 61.1177 187.827 63.5383C188.834 65.9589 189.06 68.6097 188.475 71.1526C187.89 73.6955 186.521 76.015 184.543 77.8153C182.566 79.6156 180.069 80.8149 177.371 81.2603C174.673 81.7058 171.896 81.377 169.396 80.316C166.895 79.2551 164.784 77.51 163.332 75.3036C161.879 73.0971 161.151 70.5292 161.24 67.9277C161.347 64.5019 162.867 61.2535 165.471 58.8831C168.075 56.5126 171.555 55.2102 175.16 55.2566V55.2566ZM175.04 77.595C176.962 77.5856 178.838 77.0358 180.432 76.0148C182.026 74.9939 183.267 73.5474 183.998 71.8576C184.729 70.1678 184.918 68.3102 184.54 66.5186C184.163 64.7271 183.236 63.0817 181.877 61.7898C180.518 60.4978 178.787 59.617 176.902 59.2582C175.018 58.8995 173.063 59.0788 171.286 59.7737C169.508 60.4685 167.986 61.6478 166.912 63.1631C165.838 64.6783 165.26 66.4618 165.25 68.2889C165.242 69.5131 165.49 70.7266 165.979 71.8591C166.468 72.9916 167.189 74.0205 168.1 74.8862C169.01 75.7518 170.093 76.437 171.284 76.902C172.475 77.367 173.752 77.6026 175.04 77.595V77.595Z" fill="#414042"/>
<path d="M175.08 108.213C176.63 108.213 178.19 108.213 179.75 108.213C180.28 108.213 180.789 108.413 181.164 108.77C181.539 109.126 181.75 109.61 181.75 110.114C181.75 110.618 181.539 111.102 181.164 111.458C180.789 111.815 180.28 112.015 179.75 112.015C176.59 112.015 173.44 112.015 170.28 112.015C169.75 112.015 169.241 111.815 168.866 111.458C168.491 111.102 168.28 110.618 168.28 110.114C168.28 109.61 168.491 109.126 168.866 108.77C169.241 108.413 169.75 108.213 170.28 108.213C171.88 108.194 173.48 108.213 175.08 108.213Z" fill="#414042"/>
<path d="M174.99 114.857C176.54 114.857 178.09 114.857 179.64 114.857C180.17 114.857 180.679 115.058 181.054 115.414C181.429 115.771 181.64 116.254 181.64 116.759C181.64 117.263 181.429 117.746 181.054 118.103C180.679 118.459 180.17 118.66 179.64 118.66C176.49 118.66 173.35 118.66 170.2 118.66C169.67 118.66 169.161 118.459 168.786 118.103C168.411 117.746 168.2 117.263 168.2 116.759C168.2 116.254 168.411 115.771 168.786 115.414C169.161 115.058 169.67 114.857 170.2 114.857C171.8 114.829 173.4 114.857 174.99 114.857Z" fill="#414042"/>
</g>
<path d="M22.6523 234.829C21.8333 236.002 20.6878 236.882 19.2158 237.469C17.7549 238.044 16.0505 238.332 14.1025 238.332C12.1325 238.332 10.3838 237.873 8.85645 236.954C7.3291 236.024 6.14486 234.707 5.30371 233.003C4.47363 231.299 4.04753 229.323 4.02539 227.076V224.968C4.02539 221.326 4.87207 218.504 6.56543 216.501C8.26986 214.498 10.6605 213.496 13.7373 213.496C16.2607 213.496 18.2917 214.144 19.8301 215.438C21.3685 216.722 22.3092 218.549 22.6523 220.917H19.4648C18.8672 217.718 16.9635 216.119 13.7539 216.119C11.6178 216.119 9.99642 216.872 8.88965 218.377C7.79395 219.871 7.24056 222.04 7.22949 224.885V226.86C7.22949 229.572 7.84928 231.73 9.08887 233.335C10.3285 234.929 12.0052 235.726 14.1191 235.726C15.3145 235.726 16.3604 235.593 17.2568 235.327C18.1533 235.062 18.8949 234.613 19.4814 233.982V228.554H13.8867V225.964H22.6523V234.829ZM41.3291 231.691H31.2021L28.9277 238H25.6406L34.8711 213.828H37.6602L46.9072 238H43.6367L41.3291 231.691ZM32.165 229.068H40.3828L36.2656 217.763L32.165 229.068ZM54.2783 213.828L62.1807 233.551L70.083 213.828H74.2168V238H71.0293V228.587L71.3281 218.427L63.3926 238H60.9521L53.0332 218.477L53.3486 228.587V238H50.1611V213.828H54.2783ZM93.5078 226.827H83.0322V235.394H95.2012V238H79.8447V213.828H95.0352V216.451H83.0322V224.221H93.5078V226.827ZM107.603 238V213.828H114.426C116.529 213.828 118.388 214.293 120.004 215.223C121.62 216.152 122.865 217.475 123.739 219.19C124.625 220.906 125.073 222.876 125.084 225.101V226.645C125.084 228.924 124.641 230.922 123.756 232.638C122.882 234.353 121.625 235.67 119.987 236.589C118.36 237.507 116.462 237.978 114.293 238H107.603ZM110.79 216.451V235.394H114.144C116.601 235.394 118.51 234.63 119.871 233.103C121.243 231.575 121.93 229.4 121.93 226.578V225.167C121.93 222.422 121.282 220.292 119.987 218.775C118.703 217.248 116.877 216.473 114.509 216.451H110.79ZM143.578 226.827H133.103V235.394H145.271V238H129.915V213.828H145.105V216.451H133.103V224.221H143.578V226.827ZM157.241 233.767L164.147 213.828H167.634L158.669 238H155.847L146.898 213.828H150.368L157.241 233.767ZM184.551 226.827H174.075V235.394H186.244V238H170.888V213.828H186.078V216.451H174.075V224.221H184.551V226.827ZM193.416 235.394H204.871V238H190.212V213.828H193.416V235.394ZM226.005 226.694C226.005 229.063 225.606 231.132 224.81 232.903C224.013 234.663 222.884 236.008 221.423 236.938C219.962 237.867 218.257 238.332 216.31 238.332C214.406 238.332 212.718 237.867 211.246 236.938C209.774 235.997 208.629 234.663 207.81 232.937C207.002 231.199 206.587 229.19 206.564 226.91V225.167C206.564 222.843 206.968 220.79 207.776 219.008C208.584 217.226 209.724 215.865 211.196 214.924C212.679 213.972 214.373 213.496 216.276 213.496C218.213 213.496 219.918 213.966 221.39 214.907C222.873 215.837 224.013 217.193 224.81 218.975C225.606 220.745 226.005 222.81 226.005 225.167V226.694ZM222.834 225.134C222.834 222.267 222.258 220.07 221.107 218.543C219.956 217.005 218.346 216.235 216.276 216.235C214.262 216.235 212.674 217.005 211.512 218.543C210.361 220.07 209.769 222.195 209.735 224.918V226.694C209.735 229.472 210.316 231.658 211.479 233.252C212.652 234.835 214.262 235.626 216.31 235.626C218.368 235.626 219.962 234.879 221.091 233.385C222.22 231.88 222.801 229.727 222.834 226.927V225.134ZM233.974 228.537V238H230.786V213.828H239.701C242.346 213.828 244.416 214.503 245.91 215.854C247.415 217.204 248.168 218.991 248.168 221.216C248.168 223.562 247.432 225.372 245.96 226.645C244.499 227.906 242.402 228.537 239.668 228.537H233.974ZM233.974 225.931H239.701C241.406 225.931 242.712 225.532 243.619 224.735C244.527 223.927 244.98 222.765 244.98 221.249C244.98 219.81 244.527 218.659 243.619 217.796C242.712 216.933 241.466 216.484 239.884 216.451H233.974V225.931ZM256.353 213.828L264.255 233.551L272.157 213.828H276.291V238H273.104V228.587L273.402 218.427L265.467 238H263.026L255.107 218.477L255.423 228.587V238H252.235V213.828H256.353ZM295.582 226.827H285.106V235.394H297.275V238H281.919V213.828H297.109V216.451H285.106V224.221H295.582V226.827ZM319.82 238H316.616L304.447 219.373V238H301.243V213.828H304.447L316.649 232.538V213.828H319.82V238ZM341.685 216.451H333.915V238H330.744V216.451H322.991V213.828H341.685V216.451Z" fill="black"/>
<defs>
<clipPath id="clip0">
<rect width="126" height="122.5" fill="white" transform="translate(112 40)"/>
</clipPath>
</defs>
</svg>
