<svg width="350" height="271" viewBox="0 0 350 271" fill="none" xmlns="http://www.w3.org/2000/svg">
<g clip-path="url(#clip0)">
<path d="M177.96 111.77C177.72 115.68 177.39 119.43 177.29 123.2C177.324 126.03 178.228 128.782 179.88 131.08C181.804 133.971 183.936 136.719 186.26 139.3C190.26 143.73 191.55 149.9 189.12 155.05C186.59 160.41 182.23 163.43 176.31 163.51C173.569 163.633 170.856 162.917 168.533 161.457C166.21 159.997 164.388 157.863 163.31 155.34C160.76 149.96 161.68 144.78 165.31 140.12C169.49 134.8 171.01 129.05 168.51 122.52C167.35 119.52 166.27 116.45 165.23 113.38C165.095 112.929 164.87 112.51 164.569 112.147C164.269 111.785 163.898 111.486 163.48 111.27C146.24 101.75 128.997 92.2133 111.75 82.6599C110.672 82.1249 109.818 81.2249 109.34 80.1199C108.67 78.5799 107.81 77.1199 107.13 75.5599C107.03 75.335 106.982 75.0902 106.991 74.8441C107 74.5981 107.064 74.3573 107.18 74.1399C107.395 73.9763 107.644 73.8627 107.909 73.8073C108.174 73.752 108.447 73.7563 108.71 73.8199C122.31 78.6599 135.9 83.5399 149.48 88.4599C150.29 88.7499 150.98 89.1499 150.63 90.1099C150.28 91.0699 149.37 90.8899 148.56 90.5999C139.433 87.3199 130.3 84.0499 121.16 80.7899L110.48 76.9599C111.15 78.6199 111.59 79.9599 113.1 80.7799C130.493 90.3599 147.87 99.9599 165.23 109.58C165.989 109.97 166.839 110.146 167.69 110.09C174.15 109.7 180.62 109.29 187.07 108.77C190.928 108.522 194.761 109.548 197.98 111.69C200.632 113.187 203.074 115.03 205.24 117.17C209.24 121.38 213.92 122.17 219.24 121.42C226.385 120.404 232.982 117.016 237.97 111.8L240.72 109.01C240.789 108.882 240.846 108.748 240.89 108.61L238.99 106.9C237.91 108.08 236.87 109.34 235.69 110.48C234.714 111.514 233.37 112.123 231.949 112.178C230.528 112.232 229.142 111.726 228.09 110.77C227.326 110.057 226.787 109.136 226.54 108.12C225.54 103.62 223.19 100.28 218.8 98.7599C214.41 97.2399 210.42 98.1799 206.73 101.11C201.12 105.56 194.84 107.2 187.86 104.71C178.333 101.303 168.803 97.8866 159.27 94.4599C158.71 94.2247 158.265 93.7796 158.03 93.2199C152.03 76.5999 146.073 59.9699 140.16 43.3299C139.89 42.5799 139.26 41.6499 140.22 41.1399C140.74 40.8699 141.64 41.1399 142.32 41.3999C146.63 42.7199 148.97 45.8899 151.07 49.7499C159.74 65.7499 168.7 81.6199 177.53 97.5399C177.741 97.9667 178.037 98.3458 178.399 98.6536C178.762 98.9615 179.185 99.1917 179.64 99.3299C183.53 100.62 187.32 102.33 191.29 103.24C196.35 104.45 201.02 102.82 204.95 99.5899C212.06 93.7599 221.78 94.7899 226.6 102.21C227.524 103.771 228.224 105.454 228.68 107.21C229.03 108.36 229.41 109.27 230.62 109.66C231.188 109.88 231.807 109.929 232.403 109.801C232.998 109.673 233.543 109.374 233.97 108.94C235.26 107.69 236.51 106.41 237.78 105.15C239.05 103.89 239.42 103.82 240.7 105.15C241.628 105.998 242.503 106.903 243.32 107.86C243.474 108.118 243.562 108.41 243.576 108.71C243.59 109.01 243.53 109.309 243.4 109.58C237.95 115.58 231.92 120.82 223.77 122.85C219.77 123.85 215.84 124.57 211.77 123.67C209.114 123.077 206.685 121.734 204.77 119.8C201.22 116.3 197.37 113.23 192.52 111.8C190.758 111.324 188.933 111.122 187.11 111.2C184.11 111.22 181.13 111.54 177.96 111.77ZM143.14 44.4599C143.177 44.7107 143.234 44.9581 143.31 45.1999C148.83 60.5933 154.363 75.9799 159.91 91.3599C160.183 91.9425 160.67 92.3974 161.27 92.6299C165.37 94.1699 169.51 95.6299 173.64 97.1199C174.024 97.2378 174.415 97.3346 174.81 97.4099C174.48 96.7999 174.26 96.4099 174.02 95.9499C165.11 79.9499 156.16 63.9499 147.32 47.8299C146.885 47.0163 146.291 46.2986 145.573 45.7197C144.855 45.1407 144.027 44.7122 143.14 44.4599ZM167.48 112.54C168.63 115.79 169.69 118.89 170.84 121.96C173.58 129.2 171.84 135.66 167.25 141.48C163.95 145.66 163.3 150.36 165.81 155.1C166.563 156.497 167.588 157.729 168.826 158.723C170.063 159.717 171.488 160.452 173.015 160.885C174.542 161.318 176.14 161.441 177.715 161.245C179.29 161.049 180.81 160.539 182.184 159.745C183.558 158.951 184.759 157.889 185.716 156.623C186.672 155.356 187.365 153.91 187.752 152.371C188.14 150.832 188.215 149.231 187.972 147.662C187.729 146.094 187.174 144.59 186.34 143.24C185.375 141.9 184.309 140.636 183.15 139.46C177.48 133.25 173.69 126.46 175.25 117.59C175.475 115.708 175.592 113.815 175.6 111.92L168.91 112.33C168.48 112.36 168.07 112.46 167.48 112.54Z" fill="#414042"/>
<path d="M214.66 101.46C216.374 101.456 218.051 101.96 219.478 102.909C220.906 103.857 222.02 105.208 222.68 106.789C223.341 108.371 223.518 110.112 223.189 111.794C222.86 113.477 222.039 115.023 220.832 116.239C219.624 117.455 218.083 118.286 216.403 118.627C214.724 118.968 212.981 118.803 211.394 118.153C209.808 117.504 208.45 116.399 207.492 114.978C206.534 113.557 206.018 111.884 206.01 110.17C205.973 109.021 206.171 107.877 206.592 106.807C207.012 105.738 207.647 104.765 208.457 103.95C209.267 103.134 210.235 102.493 211.302 102.065C212.368 101.637 213.511 101.431 214.66 101.46ZM221.2 110.1C221.198 108.808 220.814 107.546 220.095 106.472C219.377 105.399 218.356 104.562 217.163 104.068C215.969 103.574 214.656 103.444 213.389 103.695C212.122 103.946 210.957 104.567 210.043 105.479C209.128 106.391 208.504 107.553 208.249 108.819C207.994 110.086 208.12 111.399 208.61 112.594C209.101 113.789 209.935 114.812 211.006 115.534C212.077 116.256 213.338 116.644 214.63 116.65C216.362 116.607 218.011 115.898 219.235 114.671C220.458 113.444 221.162 111.792 221.2 110.06V110.1Z" fill="#414042"/>
<path d="M170.56 100.93C171.409 100.984 172.211 101.341 172.82 101.935C173.429 102.529 173.805 103.322 173.88 104.17C173.905 104.622 173.837 105.074 173.681 105.499C173.525 105.924 173.285 106.313 172.973 106.642C172.662 106.97 172.287 107.232 171.871 107.411C171.456 107.59 171.008 107.682 170.555 107.682C170.102 107.682 169.655 107.59 169.239 107.411C168.823 107.232 168.448 106.97 168.137 106.642C167.826 106.313 167.585 105.924 167.429 105.499C167.273 105.074 167.205 104.622 167.23 104.17C167.307 103.321 167.685 102.528 168.296 101.934C168.907 101.34 169.71 100.984 170.56 100.93ZM172.05 104.27C171.36 103.78 170.98 103.27 170.64 103.27C170.3 103.27 169.92 103.78 169.57 104.07C169.9 104.44 170.17 105 170.57 105.07C170.97 105.14 171.32 104.74 172.05 104.27Z" fill="#414042"/>
<path d="M184.93 149.23C184.94 150.978 184.43 152.69 183.465 154.148C182.5 155.606 181.124 156.744 179.511 157.418C177.898 158.092 176.121 158.272 174.405 157.934C172.69 157.596 171.114 156.756 169.877 155.52C168.64 154.285 167.798 152.709 167.458 150.995C167.118 149.28 167.296 147.502 167.968 145.889C168.64 144.275 169.777 142.897 171.234 141.931C172.691 140.964 174.402 140.452 176.15 140.46C178.459 140.516 180.659 141.457 182.293 143.09C183.927 144.722 184.872 146.921 184.93 149.23ZM182.61 149.29C182.644 148.43 182.502 147.572 182.192 146.769C181.882 145.966 181.411 145.235 180.807 144.621C180.204 144.008 179.481 143.524 178.683 143.201C177.886 142.877 177.03 142.72 176.17 142.74C175.286 142.686 174.401 142.812 173.568 143.112C172.736 143.411 171.972 143.878 171.326 144.482C170.679 145.087 170.163 145.816 169.808 146.627C169.453 147.438 169.267 148.313 169.262 149.198C169.256 150.083 169.431 150.96 169.776 151.775C170.121 152.59 170.629 153.326 171.268 153.939C171.907 154.551 172.664 155.026 173.493 155.336C174.322 155.646 175.206 155.783 176.09 155.74C176.948 155.769 177.803 155.622 178.602 155.309C179.402 154.996 180.129 154.523 180.739 153.919C181.35 153.316 181.83 152.594 182.152 151.798C182.474 151.002 182.629 150.148 182.61 149.29Z" fill="#414042"/>
</g>
<path d="M53.5918 239H50.2168V213.406H53.5918V239ZM64.1387 213.406L72.5059 234.289L80.873 213.406H85.25V239H81.875V229.033L82.1914 218.275L73.7891 239H71.2051L62.8203 218.328L63.1543 229.033V239H59.7793V213.406H64.1387ZM105.658 232.32H94.9355L92.5273 239H89.0469L98.8203 213.406H101.773L111.564 239H108.102L105.658 232.32ZM95.9551 229.543H104.656L100.297 217.572L95.9551 229.543ZM133.695 235.643C132.828 236.885 131.615 237.816 130.057 238.438C128.51 239.047 126.705 239.352 124.643 239.352C122.557 239.352 120.705 238.865 119.088 237.893C117.471 236.908 116.217 235.514 115.326 233.709C114.447 231.904 113.996 229.812 113.973 227.434V225.201C113.973 221.346 114.869 218.357 116.662 216.236C118.467 214.115 120.998 213.055 124.256 213.055C126.928 213.055 129.078 213.74 130.707 215.111C132.336 216.471 133.332 218.404 133.695 220.912H130.32C129.688 217.525 127.672 215.832 124.273 215.832C122.012 215.832 120.295 216.629 119.123 218.223C117.963 219.805 117.377 222.102 117.365 225.113V227.205C117.365 230.076 118.021 232.361 119.334 234.061C120.646 235.748 122.422 236.592 124.66 236.592C125.926 236.592 127.033 236.451 127.982 236.17C128.932 235.889 129.717 235.414 130.338 234.746V228.998H124.414V226.256H133.695V235.643ZM153.805 227.17H142.713V236.24H155.598V239H139.338V213.406H155.422V216.184H142.713V224.41H153.805V227.17ZM166.057 229.455H157.479V226.801H166.057V229.455ZM184.215 227.17H173.123V236.24H186.008V239H169.748V213.406H185.832V216.184H173.123V224.41H184.215V227.17ZM190.209 239V213.406H197.434C199.66 213.406 201.629 213.898 203.34 214.883C205.051 215.867 206.369 217.268 207.295 219.084C208.232 220.9 208.707 222.986 208.719 225.342V226.977C208.719 229.391 208.25 231.506 207.312 233.322C206.387 235.139 205.057 236.533 203.322 237.506C201.6 238.479 199.59 238.977 197.293 239H190.209ZM193.584 216.184V236.24H197.135C199.736 236.24 201.758 235.432 203.199 233.814C204.652 232.197 205.379 229.895 205.379 226.906V225.412C205.379 222.506 204.693 220.25 203.322 218.645C201.963 217.027 200.029 216.207 197.521 216.184H193.584ZM217.455 239H214.08V213.406H217.455V239ZM240.799 216.184H232.572V239H229.215V216.184H221.006V213.406H240.799V216.184ZM248.217 239H244.842V213.406H248.217V239ZM274.074 239H270.682L257.797 219.277V239H254.404V213.406H257.797L270.717 233.217V213.406H274.074V239ZM298.965 235.643C298.098 236.885 296.885 237.816 295.326 238.438C293.779 239.047 291.975 239.352 289.912 239.352C287.826 239.352 285.975 238.865 284.357 237.893C282.74 236.908 281.486 235.514 280.596 233.709C279.717 231.904 279.266 229.812 279.242 227.434V225.201C279.242 221.346 280.139 218.357 281.932 216.236C283.736 214.115 286.268 213.055 289.525 213.055C292.197 213.055 294.348 213.74 295.977 215.111C297.605 216.471 298.602 218.404 298.965 220.912H295.59C294.957 217.525 292.941 215.832 289.543 215.832C287.281 215.832 285.564 216.629 284.393 218.223C283.232 219.805 282.646 222.102 282.635 225.113V227.205C282.635 230.076 283.291 232.361 284.604 234.061C285.916 235.748 287.691 236.592 289.93 236.592C291.195 236.592 292.303 236.451 293.252 236.17C294.201 235.889 294.986 235.414 295.607 234.746V228.998H289.684V226.256H298.965V235.643Z" fill="black"/>
<defs>
<clipPath id="clip0">
<rect width="136.58" height="122.52" fill="white" transform="translate(107 41)"/>
</clipPath>
</defs>
</svg>
