<svg width="350" height="271" viewBox="0 0 350 271" fill="none" xmlns="http://www.w3.org/2000/svg">
<path d="M205.392 160.034C237.25 160.034 263.076 133.825 263.076 101.494C263.076 69.1626 237.25 42.9531 205.392 42.9531C173.534 42.9531 147.708 69.1626 147.708 101.494C147.708 133.825 173.534 160.034 205.392 160.034Z" stroke="#58595B" stroke-width="3" stroke-miterlimit="10"/>
<path d="M186.326 72.4316V127.417L233.31 99.918L186.326 72.4316Z" stroke="#58595B" stroke-width="2" stroke-miterlimit="10"/>
<path d="M200.632 81.0513L186.839 89.3323L186.852 91.9495L202.813 82.3794L200.632 81.0513Z" stroke="#58595B" stroke-width="0.75" stroke-miterlimit="10"/>
<path d="M198.848 79.9575L186.827 87.1709L186.839 89.3323L200.632 81.0512L198.848 79.9575Z" stroke="#58595B" stroke-width="0.75" stroke-miterlimit="10"/>
<path d="M197.386 79.072L186.814 85.413L186.827 87.1708L198.848 79.9574L197.386 79.072Z" stroke="#58595B" stroke-width="0.75" stroke-miterlimit="10"/>
<path d="M204.686 83.5251L186.865 94.215L186.878 96.5717L206.636 84.723L204.686 83.5251Z" stroke="#58595B" stroke-width="0.75" stroke-miterlimit="10"/>
<path d="M194.473 77.2883L186.801 81.8846L186.814 83.7075L195.974 78.1998L194.473 77.2883Z" stroke="#58595B" stroke-width="0.75" stroke-miterlimit="10"/>
<path d="M193.024 76.4028L186.788 80.1267L186.801 81.8845L194.473 77.2882L193.024 76.4028Z" stroke="#58595B" stroke-width="0.75" stroke-miterlimit="10"/>
<path d="M191.369 75.3872L186.788 78.1476V80.1267L193.024 76.4028L191.369 75.3872Z" stroke="#58595B" stroke-width="0.75" stroke-miterlimit="10"/>
<path d="M206.636 84.7231L186.878 96.5718L186.891 98.7593L208.445 85.8299L206.636 84.7231Z" stroke="#58595B" stroke-width="0.75" stroke-miterlimit="10"/>
<path d="M195.974 78.1997L186.814 83.7074V85.4131L197.386 79.0721L195.974 78.1997Z" stroke="#58595B" stroke-width="0.75" stroke-miterlimit="10"/>
<path d="M202.813 82.3794L186.852 91.9495L186.865 94.2151L204.686 83.5252L202.813 82.3794Z" stroke="#58595B" stroke-width="0.75" stroke-miterlimit="10"/>
<path d="M222.815 94.6055L186.981 116.102L186.993 118.954L225.188 96.0508L222.815 94.6055Z" stroke="#58595B" stroke-width="0.75" stroke-miterlimit="10"/>
<path d="M225.188 96.051L186.993 118.954L187.006 121.923L227.639 97.5614L225.188 96.051Z" stroke="#58595B" stroke-width="0.75" stroke-miterlimit="10"/>
<path d="M227.639 97.5613L187.006 121.923L187.019 124.397L229.692 98.8113L227.639 97.5613Z" stroke="#58595B" stroke-width="0.75" stroke-miterlimit="10"/>
<path d="M220.865 93.4207L186.968 113.746L186.981 116.102L222.815 94.6055L220.865 93.4207Z" stroke="#58595B" stroke-width="0.75" stroke-miterlimit="10"/>
<path d="M208.445 85.8298L186.891 98.7592L186.904 101.884L211.037 87.4183L208.445 85.8298Z" stroke="#58595B" stroke-width="0.75" stroke-miterlimit="10"/>
<path d="M187.019 124.397L229.692 98.8113L187.019 124.397Z" stroke="#58595B" stroke-width="0.75" stroke-miterlimit="10"/>
<path d="M218.979 92.262L186.955 111.467L186.968 113.746L220.865 93.4208L218.979 92.262Z" stroke="#58595B" stroke-width="0.75" stroke-miterlimit="10"/>
<path d="M215.284 90.0093L186.929 107.001L186.942 109.501L217.336 91.2592L215.284 90.0093Z" stroke="#58595B" stroke-width="0.75" stroke-miterlimit="10"/>
<path d="M213.205 88.7333L187.019 104.436L213.205 88.7333ZM213.205 88.7333L211.037 87.4182L186.904 101.884L186.929 107.001L215.284 90.0093L213.205 88.7333Z" stroke="#58595B" stroke-width="0.75" stroke-miterlimit="10"/>
<path d="M217.336 91.2593L186.942 109.501L186.955 111.467L218.979 92.2619L217.336 91.2593Z" stroke="#58595B" stroke-width="0.75" stroke-miterlimit="10"/>
<path d="M170.494 77.6919H126.346V84.71H170.494V77.6919Z" stroke="#58595B" stroke-width="2" stroke-miterlimit="10"/>
<path d="M170.494 91.5979H93.283V97.366H170.494V91.5979Z" stroke="#58595B" stroke-width="2" stroke-miterlimit="10"/>
<path d="M170.494 104.072H111.13V110.621H170.494V104.072Z" stroke="#58595B" stroke-width="2" stroke-miterlimit="10"/>
<path d="M170.494 117.027H126.346V123.889H170.494V117.027Z" stroke="#58595B" stroke-width="2" stroke-miterlimit="10"/>
<path d="M62.3301 212.406L70.6973 233.289L79.0645 212.406H83.4414V238H80.0664V228.033L80.3828 217.275L71.9805 238H69.3965L61.0117 217.328L61.3457 228.033V238H57.9707V212.406H62.3301ZM109.088 226.029C109.088 228.537 108.666 230.729 107.822 232.604C106.979 234.467 105.783 235.891 104.236 236.875C102.689 237.859 100.885 238.352 98.8223 238.352C96.8066 238.352 95.0195 237.859 93.4609 236.875C91.9023 235.879 90.6895 234.467 89.8223 232.639C88.9668 230.799 88.5273 228.672 88.5039 226.258V224.412C88.5039 221.951 88.9316 219.777 89.7871 217.891C90.6426 216.004 91.8496 214.562 93.4082 213.566C94.9785 212.559 96.7715 212.055 98.7871 212.055C100.838 212.055 102.643 212.553 104.201 213.549C105.771 214.533 106.979 215.969 107.822 217.855C108.666 219.73 109.088 221.916 109.088 224.412V226.029ZM105.73 224.377C105.73 221.342 105.121 219.016 103.902 217.398C102.684 215.77 100.979 214.955 98.7871 214.955C96.6543 214.955 94.9727 215.77 93.7422 217.398C92.5234 219.016 91.8965 221.266 91.8613 224.148V226.029C91.8613 228.971 92.4766 231.285 93.707 232.973C94.9492 234.648 96.6543 235.486 98.8223 235.486C101.002 235.486 102.689 234.695 103.885 233.113C105.08 231.52 105.695 229.24 105.73 226.275V224.377ZM131.342 215.184H123.115V238H119.758V215.184H111.549V212.406H131.342V215.184ZM138.76 238H135.385V212.406H138.76V238ZM164.635 226.029C164.635 228.537 164.213 230.729 163.369 232.604C162.525 234.467 161.33 235.891 159.783 236.875C158.236 237.859 156.432 238.352 154.369 238.352C152.354 238.352 150.566 237.859 149.008 236.875C147.449 235.879 146.236 234.467 145.369 232.639C144.514 230.799 144.074 228.672 144.051 226.258V224.412C144.051 221.951 144.479 219.777 145.334 217.891C146.189 216.004 147.396 214.562 148.955 213.566C150.525 212.559 152.318 212.055 154.334 212.055C156.385 212.055 158.189 212.553 159.748 213.549C161.318 214.533 162.525 215.969 163.369 217.855C164.213 219.73 164.635 221.916 164.635 224.412V226.029ZM161.277 224.377C161.277 221.342 160.668 219.016 159.449 217.398C158.23 215.77 156.525 214.955 154.334 214.955C152.201 214.955 150.52 215.77 149.289 217.398C148.07 219.016 147.443 221.266 147.408 224.148V226.029C147.408 228.971 148.023 231.285 149.254 232.973C150.496 234.648 152.201 235.486 154.369 235.486C156.549 235.486 158.236 234.695 159.432 233.113C160.627 231.52 161.242 229.24 161.277 226.275V224.377ZM189.367 238H185.975L173.09 218.277V238H169.697V212.406H173.09L186.01 232.217V212.406H189.367V238ZM204.291 238V212.406H211.516C213.742 212.406 215.711 212.898 217.422 213.883C219.133 214.867 220.451 216.268 221.377 218.084C222.314 219.9 222.789 221.986 222.801 224.342V225.977C222.801 228.391 222.332 230.506 221.395 232.322C220.469 234.139 219.139 235.533 217.404 236.506C215.682 237.479 213.672 237.977 211.375 238H204.291ZM207.666 215.184V235.24H211.217C213.818 235.24 215.84 234.432 217.281 232.814C218.734 231.197 219.461 228.895 219.461 225.906V224.412C219.461 221.506 218.775 219.25 217.404 217.645C216.045 216.027 214.111 215.207 211.604 215.184H207.666ZM242.383 226.17H231.291V235.24H244.176V238H227.916V212.406H244V215.184H231.291V223.41H242.383V226.17ZM255.918 226.592C253.023 225.76 250.914 224.74 249.59 223.533C248.277 222.314 247.621 220.814 247.621 219.033C247.621 217.018 248.424 215.354 250.029 214.041C251.646 212.717 253.744 212.055 256.322 212.055C258.08 212.055 259.645 212.395 261.016 213.074C262.398 213.754 263.465 214.691 264.215 215.887C264.977 217.082 265.357 218.389 265.357 219.807H261.965C261.965 218.26 261.473 217.047 260.488 216.168C259.504 215.277 258.115 214.832 256.322 214.832C254.658 214.832 253.357 215.201 252.42 215.939C251.494 216.666 251.031 217.68 251.031 218.98C251.031 220.023 251.471 220.908 252.35 221.635C253.24 222.35 254.746 223.006 256.867 223.604C259 224.201 260.664 224.863 261.859 225.59C263.066 226.305 263.957 227.143 264.531 228.104C265.117 229.064 265.41 230.195 265.41 231.496C265.41 233.57 264.602 235.234 262.984 236.488C261.367 237.73 259.205 238.352 256.498 238.352C254.74 238.352 253.1 238.018 251.576 237.35C250.053 236.67 248.875 235.744 248.043 234.572C247.223 233.4 246.812 232.07 246.812 230.582H250.205C250.205 232.129 250.773 233.354 251.91 234.256C253.059 235.146 254.588 235.592 256.498 235.592C258.279 235.592 259.645 235.229 260.594 234.502C261.543 233.775 262.018 232.785 262.018 231.531C262.018 230.277 261.578 229.311 260.699 228.631C259.82 227.939 258.227 227.26 255.918 226.592ZM273.373 238H269.998V212.406H273.373V238ZM298.457 234.643C297.59 235.885 296.377 236.816 294.818 237.438C293.271 238.047 291.467 238.352 289.404 238.352C287.318 238.352 285.467 237.865 283.85 236.893C282.232 235.908 280.979 234.514 280.088 232.709C279.209 230.904 278.758 228.812 278.734 226.434V224.201C278.734 220.346 279.631 217.357 281.424 215.236C283.229 213.115 285.76 212.055 289.018 212.055C291.689 212.055 293.84 212.74 295.469 214.111C297.098 215.471 298.094 217.404 298.457 219.912H295.082C294.449 216.525 292.434 214.832 289.035 214.832C286.773 214.832 285.057 215.629 283.885 217.223C282.725 218.805 282.139 221.102 282.127 224.113V226.205C282.127 229.076 282.783 231.361 284.096 233.061C285.408 234.748 287.184 235.592 289.422 235.592C290.688 235.592 291.795 235.451 292.744 235.17C293.693 234.889 294.479 234.414 295.1 233.746V227.998H289.176V225.256H298.457V234.643ZM323.77 238H320.377L307.492 218.277V238H304.1V212.406H307.492L320.412 232.217V212.406H323.77V238Z" fill="black"/>
</svg>
