<svg width="350" height="271" viewBox="0 0 350 271" fill="none" xmlns="http://www.w3.org/2000/svg">
<g clip-path="url(#clip0)">
<g clip-path="url(#clip1)">
<path d="M246.124 128.037V107.653C246.124 88.1777 246.124 68.7028 246.124 49.228C246.124 46.3904 245.718 45.9781 242.923 45.9781H122.736C119.846 45.9781 119.475 46.3661 119.475 49.3371C119.475 56.0672 119.475 62.8094 119.547 69.5395C119.547 71.0432 119.033 71.5525 117.576 71.5161C113.265 71.407 113.623 71.9527 113.611 67.6114C113.611 61.3947 113.611 55.182 113.611 48.9733C113.611 43.1163 116.693 40.012 122.473 40.012H243.58C248.811 40.012 252.012 43.2739 252.012 48.6216C252.012 76.8679 252.012 105.114 252.012 133.36C252.012 139.423 248.954 142.467 242.947 142.467C215.23 142.467 187.513 142.467 159.797 142.467C156.679 142.467 155.497 141.255 155.449 138.15C155.401 135.046 155.449 135.434 155.449 132.402C155.449 129.371 156.643 128.037 159.761 128.037H246.148H246.124ZM179.384 135.434C179.379 135.891 179.464 136.345 179.634 136.769C179.804 137.192 180.055 137.577 180.373 137.901C180.691 138.225 181.069 138.482 181.486 138.656C181.903 138.83 182.349 138.917 182.8 138.914C183.25 138.914 183.696 138.824 184.111 138.649C184.527 138.474 184.905 138.218 185.223 137.895C185.542 137.572 185.794 137.188 185.966 136.766C186.139 136.344 186.227 135.891 186.227 135.434C186.227 134.977 186.139 134.524 185.966 134.102C185.794 133.68 185.542 133.296 185.223 132.973C184.905 132.65 184.527 132.393 184.111 132.219C183.696 132.044 183.25 131.954 182.8 131.954C182.35 131.952 181.904 132.041 181.488 132.216C181.072 132.39 180.694 132.646 180.376 132.97C180.059 133.294 179.808 133.678 179.637 134.101C179.467 134.524 179.381 134.977 179.384 135.434Z" fill="#414042"/>
<path d="M94.0129 120.628V84.2488C94.0129 80.526 95.9477 78.9375 99.6024 78.9375C113.935 78.9375 128.267 78.9375 142.599 78.9375C146.469 78.9375 148.403 80.4169 148.439 84.3458C148.439 89.8876 148.439 95.4172 148.439 100.947C148.439 119.063 148.439 136.768 148.439 154.885C148.439 155.673 148.439 156.449 148.439 157.237C148.272 160.499 146.337 161.991 143.101 162.003C136.317 162.003 129.521 162.003 122.797 162.003H99.901C95.8522 162.003 93.989 160.511 93.989 156.376V120.628H94.0129ZM144.175 120.628V91.0881C144.175 88.9174 143.937 88.6628 141.787 88.6628H101.095C98.4917 88.6628 98.3842 88.7719 98.3842 91.367C98.3842 111.004 98.3842 130.632 98.3842 150.252C98.3842 152.678 98.4798 152.762 100.773 152.762H141.775C143.996 152.762 144.163 152.568 144.163 150.228L144.175 120.628ZM121.16 83.7031C119.524 83.7031 117.876 83.6304 116.24 83.7031C115.774 83.7031 115.332 84.2973 114.89 84.6126C115.332 84.94 115.774 85.5342 116.228 85.5463C119.56 85.6191 122.904 85.6191 126.236 85.5463C126.702 85.5463 127.156 84.9521 127.61 84.6247C127.156 84.3095 126.714 83.7274 126.248 83.7031C124.564 83.6304 122.856 83.7031 121.16 83.7031ZM123.692 156.279C123.692 155.774 123.545 155.279 123.269 154.859C122.992 154.438 122.599 154.11 122.139 153.916C121.68 153.722 121.174 153.671 120.685 153.769C120.197 153.867 119.747 154.109 119.395 154.466C119.042 154.822 118.801 155.277 118.702 155.773C118.604 156.268 118.652 156.782 118.841 157.25C119.03 157.718 119.351 158.118 119.764 158.401C120.176 158.683 120.662 158.835 121.16 158.838C121.493 158.843 121.824 158.78 122.132 158.653C122.441 158.526 122.721 158.338 122.957 158.1C123.193 157.862 123.38 157.578 123.506 157.265C123.632 156.952 123.696 156.617 123.692 156.279V156.279Z" fill="#414042"/>
<path d="M185.977 162.306H157.897C155.509 162.306 155.413 162.233 155.401 159.747C155.401 158.911 155.401 158.911 155.401 158.074C155.401 156.17 155.676 155.891 157.515 155.891C161.17 155.891 164.813 155.891 168.467 155.891C170.45 155.891 170.593 155.746 170.581 153.769C170.581 148.919 170.128 149.355 175.001 149.343C181.581 149.343 188.138 149.343 194.743 149.343C196.69 149.343 196.988 149.622 197 151.574C197.03 152.132 197.03 152.69 197 153.248C196.905 154.594 197.49 155.94 198.816 155.928C203.796 155.928 208.789 155.928 213.769 155.928C216.373 155.928 216.516 156.037 216.492 158.632C216.492 163.858 216.958 162.27 212.061 162.27C203.354 162.342 194.659 162.306 185.977 162.306Z" fill="#414042"/>
</g>
<path d="M24.4902 230.932L24.9824 234.307L25.7031 231.266L30.7656 213.406H33.6133L38.5527 231.266L39.2559 234.359L39.8008 230.914L43.7734 213.406H47.166L40.9609 239H37.8848L32.6113 220.35L32.207 218.398L31.8027 220.35L26.3359 239H23.2598L17.0723 213.406H20.4473L24.4902 230.932ZM65.3945 227.17H54.3027V236.24H67.1875V239H50.9277V213.406H67.0117V216.184H54.3027V224.41H65.3945V227.17ZM71.3887 239V213.406H79.7559C82.5332 213.406 84.6191 213.98 86.0137 215.129C87.4199 216.277 88.123 217.977 88.123 220.227C88.123 221.422 87.7832 222.482 87.1035 223.408C86.4238 224.322 85.498 225.031 84.3262 225.535C85.709 225.922 86.7988 226.66 87.5957 227.75C88.4043 228.828 88.8086 230.117 88.8086 231.617C88.8086 233.914 88.0645 235.719 86.5762 237.031C85.0879 238.344 82.9844 239 80.2656 239H71.3887ZM74.7637 227.029V236.24H80.3359C81.9062 236.24 83.1426 235.836 84.0449 235.027C84.959 234.207 85.416 233.082 85.416 231.652C85.416 228.57 83.7402 227.029 80.3887 227.029H74.7637ZM74.7637 224.322H79.8613C81.3379 224.322 82.5156 223.953 83.3945 223.215C84.2852 222.477 84.7305 221.475 84.7305 220.209C84.7305 218.803 84.3203 217.783 83.5 217.15C82.6797 216.506 81.4316 216.184 79.7559 216.184H74.7637V224.322ZM102.748 239V213.406H109.973C112.199 213.406 114.168 213.898 115.879 214.883C117.59 215.867 118.908 217.268 119.834 219.084C120.771 220.9 121.246 222.986 121.258 225.342V226.977C121.258 229.391 120.789 231.506 119.852 233.322C118.926 235.139 117.596 236.533 115.861 237.506C114.139 238.479 112.129 238.977 109.832 239H102.748ZM106.123 216.184V236.24H109.674C112.275 236.24 114.297 235.432 115.738 233.814C117.191 232.197 117.918 229.895 117.918 226.906V225.412C117.918 222.506 117.232 220.25 115.861 218.645C114.502 217.027 112.568 216.207 110.061 216.184H106.123ZM140.84 227.17H129.748V236.24H142.633V239H126.373V213.406H142.457V216.184H129.748V224.41H140.84V227.17ZM155.307 234.518L162.619 213.406H166.311L156.818 239H153.83L144.355 213.406H148.029L155.307 234.518ZM184.223 227.17H173.131V236.24H186.016V239H169.756V213.406H185.84V216.184H173.131V224.41H184.223V227.17ZM193.609 236.24H205.738V239H190.217V213.406H193.609V236.24ZM228.115 227.029C228.115 229.537 227.693 231.729 226.85 233.604C226.006 235.467 224.811 236.891 223.264 237.875C221.717 238.859 219.912 239.352 217.85 239.352C215.834 239.352 214.047 238.859 212.488 237.875C210.93 236.879 209.717 235.467 208.85 233.639C207.994 231.799 207.555 229.672 207.531 227.258V225.412C207.531 222.951 207.959 220.777 208.814 218.891C209.67 217.004 210.877 215.562 212.436 214.566C214.006 213.559 215.799 213.055 217.814 213.055C219.865 213.055 221.67 213.553 223.229 214.549C224.799 215.533 226.006 216.969 226.85 218.855C227.693 220.73 228.115 222.916 228.115 225.412V227.029ZM224.758 225.377C224.758 222.342 224.148 220.016 222.93 218.398C221.711 216.77 220.006 215.955 217.814 215.955C215.682 215.955 214 216.77 212.77 218.398C211.551 220.016 210.924 222.266 210.889 225.148V227.029C210.889 229.971 211.504 232.285 212.734 233.973C213.977 235.648 215.682 236.486 217.85 236.486C220.029 236.486 221.717 235.695 222.912 234.113C224.107 232.52 224.723 230.24 224.758 227.275V225.377ZM236.553 228.98V239H233.178V213.406H242.617C245.418 213.406 247.609 214.121 249.191 215.551C250.785 216.98 251.582 218.873 251.582 221.229C251.582 223.713 250.803 225.629 249.244 226.977C247.697 228.312 245.477 228.98 242.582 228.98H236.553ZM236.553 226.221H242.617C244.422 226.221 245.805 225.799 246.766 224.955C247.727 224.1 248.207 222.869 248.207 221.264C248.207 219.74 247.727 218.521 246.766 217.607C245.805 216.693 244.486 216.219 242.811 216.184H236.553V226.221ZM260.248 213.406L268.615 234.289L276.982 213.406H281.359V239H277.984V229.033L278.301 218.275L269.898 239H267.314L258.93 218.328L259.264 229.033V239H255.889V213.406H260.248ZM301.785 227.17H290.693V236.24H303.578V239H287.318V213.406H303.402V216.184H290.693V224.41H301.785V227.17ZM327.449 239H324.057L311.172 219.277V239H307.779V213.406H311.172L324.092 233.217V213.406H327.449V239ZM350.6 216.184H342.373V239H339.016V216.184H330.807V213.406H350.6V216.184Z" fill="black"/>
</g>
<defs>
<clipPath id="clip0">
<rect width="350" height="271" fill="white"/>
</clipPath>
<clipPath id="clip1">
<rect width="158" height="122.5" fill="white" transform="translate(94 40)"/>
</clipPath>
</defs>
</svg>
